<svg xmlns="http://www.w3.org/2000/svg" width="1280" height="640" viewBox="0 0 1280 640" role="img" aria-label="Builder Content Guide"><defs><linearGradient id="bg" x2="1" y2="1"><stop stop-color="#103855"/><stop offset="1" stop-color="#144d79"/></linearGradient></defs><rect width="1280" height="640" fill="url(#bg)"/><circle cx="1280" cy="0" r="448" fill="#2271b1" opacity=".28"/><g transform="translate(35 155) scale(1.25)"><g transform="translate(20 20)"><rect x="20" y="34" width="125" height="160" rx="10" fill="#8dbbdd" transform="rotate(-12 82 114)"/><rect x="44" y="43" width="125" height="160" rx="10" fill="#e0edf7" transform="rotate(-6 106 123)"/><rect x="70" y="58" width="130" height="158" rx="10" fill="#fff" stroke="#ffb321" stroke-width="9"/><circle cx="99" cy="94" r="15" fill="#ffb321"/><path d="M94 132h77M94 155h64M94 178h46" stroke="#8cb6d7" stroke-width="8" stroke-linecap="round"/><path d="M169 165h26l23 23v46h-49z" fill="#2271b1"/><path d="M195 165v23h23" fill="#a6d5f4"/><path d="M182 204h23M182 217h23" stroke="#fff" stroke-width="4" stroke-linecap="round"/></g></g><g font-family="DejaVu Sans,Arial,sans-serif"><g transform="translate(390 145)"><circle cx="30" cy="30" r="30" fill="#3197d8"/><text x="30" y="41" text-anchor="middle" font-size="32" font-weight="700" fill="white">1</text><text x="95" y="43" fill="#a6d5f4" font-size="40">→</text><circle cx="185" cy="30" r="30" fill="#a6d5f4"/><text x="185" y="41" text-anchor="middle" font-size="32" font-weight="700" fill="#103855">2</text><text x="250" y="43" fill="#a6d5f4" font-size="40">→</text><circle cx="340" cy="30" r="30" fill="#ffb321"/><text x="340" y="41" text-anchor="middle" font-size="32" font-weight="700" fill="#103855">3</text></g><text x="390" y="330" fill="white" font-size="48" font-weight="700">Builder Content Guide</text><text x="390" y="395" fill="#c0dbef" font-size="29">Inhalte finden. Änderungen verstehen.</text><text x="1240" y="610" text-anchor="end" fill="#c0dbef" font-size="25">deckerweb</text></g></svg>